<?xml version="1.0" encoding="UTF-8"?>
<svg xmlns="http://www.w3.org/2000/svg" viewBox="0 0 1094.69 638.55">
  <g id="Layer_1" data-name="Layer 1">
    <path d="M852.67.11c138.3-3.96,247.82,105.23,241.77,244.08-7.23,166.04-190.33,274.35-339.11,197.3-101.77-52.7-148.21-171.04-114.17-280.5C669.44,70.03,757.19,2.85,852.67.11h0ZM910.96,148.39c18.29-16.93,34.34-39.47,52.02-57.3,8.26-13.67-.94-21.59-12.31-27.67-31.41-16.78-75.28-25.74-110.52-19.23-12.7,2.35-28.87,8.28-27.68,23.93,8.94,20.12,16.48,41.72,25.95,61.51,2.39,4.99,4.71,10.11,10.03,12.52,4.53,2.06,10.15,1.32,15.08,1.95,7.15.9,14.66,2.58,21.56,4.68,10.35,3.15,16.23,8.53,25.86-.4h0ZM750.03,80.21c-7.05.95-15.07,8.62-20.16,13.44-19.94,18.88-39.95,48.09-49.46,73.9-14.28,38.72,16.79,34.62,43.26,36.36,12.26.81,25.6,2.53,37.73,2.78,15.54.31,16.34-11.72,23.53-22.54,3.38-5.07,11.17-12.55,13.33-17.05s1.83-7.33.22-11.78c-7.79-21.58-20.3-43.54-28.93-64.97-3.65-7.04-11.58-11.21-19.52-10.15h0ZM995.76,131c-10.12,9.83-19.51,20.57-29.07,31-4.86,5.31-18.83,18.34-20.85,24.26-2.7,7.97.77,13.44,2.45,20.82,2.49,10.95,2.67,19.16,2.95,30.15.25,9.54,1.4,13.4,9.84,18.28,19.05,11.02,40.97,19.58,60.3,30.38,22.41,7.73,27.01-11.65,29.25-28.91,5.02-38.86-1.24-81.74-20.57-116.02-8.51-15.07-18.99-24.86-34.3-9.97h0ZM891.25,235.11c0-17.64-14.3-31.93-31.93-31.93s-31.93,14.3-31.93,31.93,14.3,31.93,31.93,31.93,31.93-14.3,31.93-31.93ZM688.78,250.49c-25.21,4.17-13.11,36.81-7.01,51.9,12.97,32.12,37.36,63.44,65.16,83.98,12.36,9.13,28.24,19.82,38.48,1.29l21.66-66.26c2.06-12.49-6.66-15.04-13.71-22.43-4.51-4.74-8.91-11.31-11.82-17.18-6.14-12.36-6.32-26.34-22.92-27.71-17.89-1.48-35.92-1.92-53.85-2.77-5.16-.25-10.57-1.71-16.01-.81h0ZM929.98,296.98c-3.97.76-6.38,4.06-9.33,6.32-12.56,9.65-25.84,16.89-41.55,20.13-9.46,1.96-21.31.15-24.5,11.86-5.14,19.81-16.03,40.73-20.66,60.36-6.54,27.81,22.64,28.43,42.06,26.87,32.86-2.64,65.68-15.37,92.71-33.87,9.89-6.76,36.75-27.89,39.85-38.87,4.13-14.65-8.37-19.98-18.79-25.38-17.23-8.94-34.92-17.03-52-26.25-2.48-1.09-5.06-1.71-7.8-1.19v.02Z"/>
    <g>
      <path d="M0,335.4c0-51.6,28.8-91.8,73.8-112.8v-.6c-39.6-18.6-63-54.6-63-100.8C10.8,51.6,67.8,0,151.8,0s136.8,46.8,136.8,118.8c0,44.4-24,80.4-61.2,100.2v.6c45.6,19.8,75,60,75,111.6,0,80.4-61.8,135.6-152.4,135.6S0,413.4,0,335.4ZM229.8,332.4c0-46.8-33-78-78-78s-79.2,31.8-79.2,79.8,34.8,73.2,78.6,73.2,78.6-28.2,78.6-75ZM220.8,124.2c0-43.2-29.4-66-70.2-66s-72,22.8-72,67.2,31.2,70.2,70.8,70.2,71.4-28.8,71.4-71.4Z"/>
      <path d="M461.41,198.6c47.4-2.4,78-33.6,78-72,0-41.4-25.2-67.2-66.6-67.2-37.2,0-65.4,19.8-69,67.8h-66.6C340.81,30.6,411.61,0,475.21,0c77.4,0,132,49.2,132,117.6,0,49.8-28.8,81-61.8,97.8v1.8c45.6,12,79.8,49.8,79.8,109.8,0,81-60.6,139.8-151.2,139.8-96,0-148.2-57-153-135.6h70.8c4.8,55.8,43.8,74.4,82.2,74.4,46.8,0,78-30,78-81,0-55.2-40.2-81-90.6-79.8v-46.2Z"/>
    </g>
  </g>
  <g id="Layer_2" data-name="Layer 2">
    <g>
      <path d="M9,482.55h32.25c20.87,0,35.36,16.4,35.36,39.4,0,24.8-14.49,41.8-35.7,41.8h-20.52v69.6h-11.38v-150.8ZM39.7,552.15c15.52,0,25.35-11.4,25.35-29.4s-10-28.6-25.18-28.6h-19.49v58h19.32Z"/>
      <path d="M87.12,482.55h30.01c16.9,0,34.32,11,34.32,38.8s-15,39-34.49,41.4l43.81,70.6h-14.14l-42.43-70.2c-1.9,0-3.97-.2-5.69-.2v70.4h-11.38v-150.8ZM107.13,552.75c18.11,0,32.42-8,32.42-31.4,0-17.6-10.87-27.2-24.66-27.2h-16.38v58.4c2.59.2,5.69.2,8.62.2Z"/>
      <path d="M155.94,558.15c0-44.4,29.32-78.2,67.26-78.2s67.44,33.6,67.44,78.8-29.15,77.2-66.75,77.2-67.95-33.2-67.95-77.8ZM278.74,558.75c0-37-24.66-66-55.36-66s-55.54,28.4-55.54,65.8,24.15,64.8,56.05,64.8,54.85-28.8,54.85-64.6Z"/>
      <path d="M339.45,482.55c34.15,0,61.74,33.4,61.74,74.2,0,45.4-29.49,76.6-63.81,76.6h-33.8v-150.8h35.87ZM335.31,621.35c30.35,0,53.98-26.4,53.98-63.6s-22.77-63.2-52.6-63.2h-21.73v126.8h20.35Z"/>
      <path d="M424.65,482.55v98.4c0,19.8,7.42,42.6,34.67,42.6s35.36-23,35.36-42v-99h11.38v101.6c0,24-13.63,51.8-47.08,51.8s-45.7-26.4-45.7-51.6v-101.8h11.38Z"/>
      <path d="M518.13,560.15c0-45,29.67-80.2,67.26-80.2,16.56,0,29.67,5.6,43.63,18.2v16.2h-.17c-12.25-14.6-26.73-21.8-42.94-21.8-31.73,0-55.71,28.8-55.71,67,0,35.8,24.66,63.8,55.19,63.8,16.04,0,31.91-8,43.63-21.8h.34v16c-13.28,12-28.8,18.4-44.32,18.4-37.6,0-66.92-33.2-66.92-75.8Z"/>
      <path d="M660.76,494.55h-30.7v-12h72.78v12h-30.7v138.8h-11.38v-138.8Z"/>
      <path d="M722.33,482.55v150.8h-11.38v-150.8h11.38Z"/>
      <path d="M735.09,558.15c0-44.4,29.32-78.2,67.26-78.2s67.44,33.6,67.44,78.8-29.15,77.2-66.75,77.2-67.95-33.2-67.95-77.8ZM857.89,558.75c0-37-24.66-66-55.36-66s-55.54,28.4-55.54,65.8,24.15,64.8,56.05,64.8,54.85-28.8,54.85-64.6Z"/>
      <path d="M882.72,477.35h.86l104,129.4.52-.2v-124h11.04v156h-.69l-104.34-129.2-.34.2v123.8h-11.04v-156Z"/>
      <path d="M1048.81,491.95c-15.69,0-23.63,13.2-23.63,26.4,0,16,10,22.6,29.15,31.2,13.45,5.6,33.63,15,33.63,40.4,0,31-21.39,46-40.19,46s-32.25-10.8-38.98-27.2l9.31-7.6c6.73,15.6,17.07,22.4,30.18,22.4s27.42-11.8,27.42-32c0-18.8-13.62-25.2-29.67-32.2-17.76-7.4-32.94-16.4-32.94-40.8,0-18.2,11.73-38.6,35.87-38.6,10.87,0,23.97,5.6,31.91,21l-8.11,7.8c-7.24-12.2-14.32-16.8-23.97-16.8Z"/>
    </g>
  </g>
</svg>